<svg width="30" height="24" viewBox="0 0 30 24" fill="none" xmlns="http://www.w3.org/2000/svg">
<path d="M6.67362 23.9861C4.76361 23.9861 2.85205 23.9677 0.937382 23.9968C0.27849 24.006 0.00718104 23.7945 0.016483 23.1173C0.0893488 18.9606 -0.146302 14.7978 0.171517 10.6457C0.37306 8.03185 0.869167 5.47011 2.61484 3.36341C4.63648 0.93343 7.38058 0.0830904 10.4471 0.000354603C10.8998 -0.0103704 11.1138 0.222515 11.1153 0.65458C11.1153 1.8803 11.1153 3.10601 11.1153 4.33173C11.1153 4.68412 10.9448 4.88177 10.5758 4.9599C7.88288 5.52986 7.0488 6.43536 6.84571 9.06758C6.78525 9.8551 6.84571 10.6503 6.80075 11.4393C6.77904 11.8714 6.97129 11.9404 7.34647 11.9358C9.05184 11.9204 10.7572 11.9495 12.4626 11.9174C13.1122 11.9051 13.3928 12.0828 13.3928 12.7769C13.368 16.2498 13.368 19.7201 13.3928 23.1878C13.3928 23.79 13.1649 24.0029 12.5711 23.9968C10.6084 23.9784 8.6472 23.9968 6.67982 23.9968L6.67362 23.9861Z" fill="#014DB8"/>
<path d="M16.6409 16.9107C16.658 14.133 16.5727 11.3506 17.0518 8.59273C17.7727 4.45594 19.8765 1.48818 24.1663 0.366646C25.0686 0.130696 25.9957 0.060217 26.9212 0.00505984C27.4576 -0.0301795 27.746 0.158274 27.7367 0.742021C27.7181 1.91564 27.7274 3.08927 27.7367 4.26595C27.7367 4.64746 27.6003 4.87881 27.1848 4.95848C24.5352 5.4886 23.6484 6.4799 23.4469 9.16268C23.3895 9.92876 23.4469 10.6948 23.4035 11.4609C23.3802 11.9037 23.5895 11.9481 23.9554 11.9451C25.684 11.9313 27.4142 11.9588 29.1428 11.9282C29.7909 11.9159 30.0033 12.1642 30.0002 12.7816C29.9826 16.2545 29.9826 19.7238 30.0002 23.1895C30.0002 23.7855 29.7723 24.003 29.1785 24C25.2809 23.9867 21.3834 23.9867 17.4859 24C16.8378 24 16.6316 23.7272 16.6378 23.1175C16.6533 21.0429 16.6394 18.9761 16.6409 16.9107Z" fill="#014DB8"/>
</svg>
