<svg width="30" height="24" viewBox="0 0 30 24" fill="none" xmlns="http://www.w3.org/2000/svg">
<path d="M23.3264 0.0139313C25.2364 0.0139313 27.148 0.0323181 29.0626 0.00320625C29.7215 -0.00598526 29.9928 0.20545 29.9835 0.882658C29.9107 5.03937 30.1463 9.2022 29.8285 13.3543C29.6269 15.9681 29.1308 18.5299 27.3852 20.6366C25.3635 23.0666 22.6194 23.9169 19.5529 23.9996C19.1002 24.0104 18.8862 23.7775 18.8847 23.3454C18.8847 22.1197 18.8847 20.894 18.8847 19.6683C18.8847 19.3159 19.0552 19.1182 19.4242 19.0401C22.1171 18.4701 22.9512 17.5646 23.1543 14.9324C23.2148 14.1449 23.1543 13.3497 23.1993 12.5607C23.221 12.1286 23.0287 12.0596 22.6535 12.0642C20.9482 12.0796 19.2428 12.0505 17.5374 12.0826C16.8878 12.0949 16.6072 11.9172 16.6072 11.2231C16.632 7.75024 16.632 4.27993 16.6072 0.81218C16.6072 0.210047 16.8351 -0.00292206 17.4289 0.00320625C19.3916 0.0215931 21.3528 0.00320625 23.3202 0.00320625L23.3264 0.0139313Z" fill="#014DB8"/>
<path d="M13.3596 7.08926C13.3425 9.86704 13.4278 12.6494 12.9487 15.4073C12.2278 19.5441 10.124 22.5118 5.83423 23.6334C4.93194 23.8693 4.00484 23.9398 3.07929 23.9949C2.54287 24.0302 2.25451 23.8417 2.26381 23.258C2.28241 22.0844 2.27311 20.9107 2.26381 19.734C2.26381 19.3525 2.40024 19.1212 2.81573 19.0415C5.46525 18.5114 6.35204 17.5201 6.55359 14.8373C6.61095 14.0712 6.55359 13.3052 6.597 12.5391C6.62025 12.0963 6.41095 12.0519 6.04508 12.0549C4.31645 12.0687 2.58628 12.0412 0.857655 12.0718C0.209615 12.0841 -0.00278091 11.8358 0.000319481 11.2184C0.01789 7.74553 0.01789 4.27625 0.000319481 0.810537C0.000319481 0.214535 0.228218 -0.00303078 0.821997 3.43323e-05C4.71954 0.0133133 8.61708 0.0133133 12.5146 3.43323e-05C13.1627 3.43323e-05 13.3689 0.272757 13.3627 0.882549C13.3472 2.95707 13.3611 5.02393 13.3596 7.08926Z" fill="#014DB8"/>
</svg>
